<?xml version="1.0" encoding="iso-8859-1"?>
<!-- Generator: Adobe Illustrator 19.0.0, SVG Export Plug-In . SVG Version: 6.00 Build 0)  -->
<svg version="1.1" id="Layer_1" xmlns="http://www.w3.org/2000/svg" xmlns:xlink="http://www.w3.org/1999/xlink" x="0px" y="0px"
	 viewBox="0 0 512 512" style="enable-background:new 0 0 512 512;" xml:space="preserve">
<path style="fill:#178E49;" d="M299.99,166.373c9.807,35.086,19.133,73.631,25.066,110.397
	c-16.244,17.285-31.257,34.795-43.718,51.823c-9.594,13.098-16.916,25.525-22.547,37.269c-5.631-11.744-12.953-24.171-22.547-37.269
	c-12.36-16.882-27.395-34.258-43.785-51.397c5.934-36.888,15.293-75.602,25.122-110.822c19.648-70.351,41.21-126.73,41.21-126.73
	S280.353,96.022,299.99,166.373z"/>
<path style="fill:#005D2B;" d="M420.91,55.507c0,0,1.478,84.267-35.892,162.757c-20.275,18.416-40.964,38.299-59.962,58.506
	c-5.933-36.765-15.259-75.311-25.066-110.397C359.056,106.803,420.91,55.507,420.91,55.507z"/>
<path style="fill:#107E39;" d="M385.018,218.264c58.999-53.581,114.472-94.656,114.472-94.656s-38.31,191.316-100.713,290.943
	c-60.801,97.074-212.912,97.365-279.971,0c-66.679-96.817-106.31-290.943-106.31-290.943s59.783,42.654,121.659,97.746
	c19.86,17.666,39.922,36.609,58.305,55.842c16.39,17.14,31.425,34.515,43.785,51.397c9.594,13.098,16.916,25.525,22.547,37.269
	c5.631-11.744,12.953-24.171,22.547-37.269c12.46-17.028,27.473-34.537,43.718-51.823
	C344.054,256.563,364.743,236.68,385.018,218.264z"/>
<path style="fill:#005D2B;" d="M217.581,166.373c-9.829,35.22-19.189,73.934-25.122,110.822
	c-18.383-19.233-38.445-38.176-58.305-55.842C101.923,138.397,96.46,55.507,96.46,55.507S158.526,106.837,217.581,166.373z"/>
<path style="fill:#231F20;" d="M494.493,116.86c-0.471,0.349-40.363,29.969-88.037,71.201
	c23.656-67.677,22.902-129.68,22.85-132.701l-0.306-17.469l-13.45,11.153c-0.586,0.486-55.914,46.481-111.39,101.306
	c-18.392-63.482-37.324-113.176-37.527-113.706l-7.842-20.506l-7.842,20.506c-0.203,0.53-19.135,50.226-37.537,113.71
	C157.909,95.54,102.4,49.522,101.812,49.036L86.8,36.623l1.281,19.436c0.199,3.017,4.612,66.342,27.564,138.075
	c-52.243-44.422-97.752-76.988-98.274-77.36L0,104.379l4.269,20.909c0.1,0.489,10.194,49.604,28.337,109.905
	c24.462,81.303,51.137,143.25,79.285,184.121c33.158,48.143,88.621,76.552,149.022,76.549c1.395,0,2.804-0.016,4.205-0.046
	c58.828-1.282,111.453-29.995,140.775-76.809c26.294-41.98,51.43-104.21,74.708-184.963
	c17.275-59.924,27.024-108.306,27.121-108.788L512,103.898L494.493,116.86z M256.536,472.368L47.093,160.115
	c22.004,17.083,50.793,40.275,79.985,66.185l0.439,1.116l0.568-0.223c0.163,0.146,0.327,0.289,0.489,0.434
	c21.68,19.284,41.131,37.913,57.818,55.372c17.176,17.962,31.67,34.971,43.079,50.556c8.68,11.849,15.998,23.941,21.75,35.938
	l7.57,15.789l7.571-15.789c5.753-11.997,13.07-24.089,21.752-35.941c11.43-15.622,25.918-32.791,43.059-51.03
	c17.115-18.205,37.131-37.734,59.489-58.042c26.541-24.102,52.506-45.766,72.926-62.221L256.536,472.368z M186.988,259.574
	c-13.788-13.849-29.107-28.299-45.717-43.122c-17.865-46.571-27.256-93.292-31.994-124.419l84.233,135.518
	C191.054,238.619,188.878,249.301,186.988,259.574z M330.488,258.984c-1.913-10.356-4.113-21.114-6.595-32.249l86.916-139.198
	c-2.949,30.768-10.971,79.357-32.695,125.659C360.76,229,344.8,244.344,330.488,258.984z M384.217,98.418l-65.731,105.27
	c-2.775-11.289-5.813-22.913-9.104-34.848C335.893,142.295,362.866,117.46,384.217,98.418z M316.095,274.063
	c-16.378,17.612-30.341,34.275-41.531,49.568c-2.577,3.519-5.024,7.065-7.377,10.623V88.525
	c7.328,21.79,16.229,49.704,24.715,80.109C302.727,207.358,310.851,242.778,316.095,274.063z M250.395,88.518v245.736
	c-2.352-3.558-4.798-7.102-7.375-10.621c-11.187-15.282-25.171-31.817-41.594-49.19c5.229-31.299,13.374-66.863,24.243-105.811
	C234.16,138.226,243.064,110.31,250.395,88.518z M208.189,168.842c-3.361,12.203-6.454,24.075-9.275,35.592L132.73,97.954
	C154.207,117.056,181.454,142.086,208.189,168.842z M125.721,409.789c-45.615-66.232-78.761-180.51-94.584-243.316L239.95,477.789
	C193.426,472.122,151.857,447.736,125.721,409.789z M391.661,410.095c-25.02,39.947-69.154,65.192-119.137,68.57l208.698-312.575
	C466.041,228.317,434.412,341.84,391.661,410.095z"/>
<g>
</g>
<g>
</g>
<g>
</g>
<g>
</g>
<g>
</g>
<g>
</g>
<g>
</g>
<g>
</g>
<g>
</g>
<g>
</g>
<g>
</g>
<g>
</g>
<g>
</g>
<g>
</g>
<g>
</g>
</svg>
